<svg fill="none" viewBox="0 0 246 232" xmlns="http://www.w3.org/2000/svg">
  <mask fill="white" id="path-1-inside-1_4020_32735">
    <path d="M212.628 76.0253C224.534 102.928 212.624 134.482 185.796 146.764L185.162 147.05C182.947 148.03 180.7 148.849 178.435 149.511C164.623 153.55 148.556 168.051 143.177 181.399C138.12 193.95 128.356 204.618 115.001 210.52L114.364 210.797C87.3066 222.348 55.9129 210.022 43.986 183.034L43.7081 182.396C36.3021 165.047 38.7122 145.915 48.5098 131.275C54.5995 122.175 54.6533 106.676 50.2274 96.6611L49.8276 95.725C41.8308 76.3146 50.4645 54.0053 69.4449 45.0358L70.3716 44.6124C82.0887 39.4344 94.9684 40.4157 105.385 46.1524C115.335 51.6317 130.642 53.5724 140.97 48.8445L141.604 48.5597C168.507 36.6533 200.061 48.5632 212.343 75.3917L212.628 76.0253ZM144.344 156.182C143.792 150.641 139.608 146.434 134.88 143.491C126.401 138.213 119.296 130.524 114.717 120.848L114.423 120.218C113.564 118.341 112.823 116.44 112.195 114.523C111.966 113.824 111.445 113.254 110.754 113.003C110.024 112.739 109.215 112.871 108.573 113.308C106.618 114.64 104.517 115.815 102.276 116.805L101.339 117.205C93.5573 120.411 85.3105 120.943 77.6439 119.207C71.9147 117.91 65.6226 117.573 61.0434 121.253C43.354 135.465 36.6651 160.283 46.2724 182.023C57.735 207.961 88.0532 219.695 113.991 208.233C134.817 199.03 146.486 177.67 144.344 156.182ZM114.705 74.7833C117.494 68.8794 118.752 61.7897 114.533 56.8065C104.213 44.6169 86.7319 40.1155 71.3822 46.8989C52.7097 55.1509 44.2621 76.9779 52.5138 95.6505C55.6519 102.751 60.7542 108.372 66.8986 112.159C68.0872 112.892 69.5668 112.883 70.8367 112.303L71.4716 112.018C83.5329 106.688 96.4977 106.14 108.241 109.554C108.792 109.714 109.391 109.607 109.835 109.243C110.323 108.842 110.534 108.201 110.418 107.579C108.329 96.3037 109.957 84.8368 114.705 74.7833ZM101.265 114.519C103.377 113.586 102.949 110.795 100.665 110.459C91.4092 109.096 81.6704 110.244 72.4812 114.304C72.1804 114.437 72.1862 114.86 72.4912 114.984C81.4276 118.589 91.755 118.722 101.265 114.519ZM138.047 142.465C139.389 143.225 140.825 141.924 140.201 140.514C135.663 130.245 128.169 122.203 119.161 116.945C117.61 116.04 115.949 117.545 116.697 119.178C121.37 129.386 128.971 137.327 138.047 142.465ZM184.756 144.491C210.54 132.687 221.873 102.216 210.07 76.4315C198.266 50.6476 167.794 39.3138 142.01 51.1172C137.652 53.1121 133.708 55.6403 130.218 58.589C125.278 62.7624 124.797 69.7719 125.538 76.1959C126.922 88.1845 122.689 100.18 114.207 108.648C113.696 109.159 113.466 109.893 113.647 110.593C113.803 111.195 114.239 111.683 114.809 111.932C126.733 117.142 136.813 126.663 142.488 139.503L142.765 140.141C144.22 143.551 146.771 146.525 150.356 147.468C161.427 150.38 173.535 149.628 184.756 144.491ZM122.523 88.2036C124.219 80.0463 115.101 78.4641 113.275 86.5934C111.45 94.7192 120.356 97.3547 122.288 89.2536C122.371 88.9049 122.449 88.5548 122.523 88.2036Z"/>
  </mask>
  <path d="M212.628 76.0253L223.602 71.1689L223.585 71.1306L223.567 71.0925L212.628 76.0253ZM185.796 146.764L190.728 157.703L190.76 157.689L190.791 157.675L185.796 146.764ZM185.162 147.05L190.018 158.023L190.056 158.006L190.094 157.989L185.162 147.05ZM115.001 210.52L119.795 221.521L119.824 221.508L119.852 221.496L115.001 210.52ZM114.364 210.797L119.076 221.834L119.117 221.816L119.159 221.798L114.364 210.797ZM43.986 183.034L32.985 187.828L32.9975 187.856L33.01 187.885L43.986 183.034ZM43.7081 182.396L32.6715 187.107L32.6892 187.149L32.7071 187.19L43.7081 182.396ZM50.2274 96.6611L39.1915 101.374L39.221 101.443L39.2514 101.512L50.2274 96.6611ZM49.8276 95.725L38.7323 100.296L38.7616 100.367L38.7918 100.438L49.8276 95.725ZM69.4449 45.0358L64.4587 34.1208L64.388 34.1531L64.3178 34.1862L69.4449 45.0358ZM70.3716 44.6124L65.5211 33.6365L65.453 33.6665L65.3854 33.6974L70.3716 44.6124ZM140.97 48.8445L136.053 37.8983L136.014 37.9158L135.975 37.9335L140.97 48.8445ZM141.604 48.5597L136.748 37.5863L136.717 37.5998L136.687 37.6135L141.604 48.5597ZM212.343 75.3917L223.282 70.4589L223.268 70.4278L223.254 70.3968L212.343 75.3917ZM114.717 120.848L103.841 125.919L103.856 125.95L103.87 125.981L114.717 120.848ZM114.423 120.218L103.512 125.213L103.53 125.25L103.547 125.288L114.423 120.218ZM102.276 116.805L106.988 127.841L107.058 127.812L107.127 127.781L102.276 116.805ZM101.339 117.205L105.91 128.301L105.981 128.272L106.051 128.241L101.339 117.205ZM46.2724 182.023L35.2964 186.874L35.2965 186.874L46.2724 182.023ZM113.991 208.233L118.841 219.209L118.841 219.209L113.991 208.233ZM71.3822 46.8989L66.5316 35.9229L66.5315 35.9229L71.3822 46.8989ZM52.5138 95.6505L41.5378 100.501L41.5379 100.501L52.5138 95.6505ZM70.8367 112.303L65.9199 101.356L65.8836 101.373L65.8475 101.389L70.8367 112.303ZM71.4716 112.018L66.6211 101.042L66.5879 101.056L66.5547 101.071L71.4716 112.018ZM72.4812 114.304L67.6306 103.328L67.6305 103.329L72.4812 114.304ZM101.265 114.519L106.116 125.495L106.116 125.495L101.265 114.519ZM140.201 140.514L151.177 135.663L151.177 135.663L140.201 140.514ZM116.697 119.178L105.786 124.173L105.786 124.173L116.697 119.178ZM184.756 144.491L189.751 155.402L189.751 155.402L184.756 144.491ZM210.07 76.4315L220.981 71.4366L220.981 71.4365L210.07 76.4315ZM142.01 51.1172L137.015 40.2061L137.015 40.2062L142.01 51.1172ZM142.488 139.503L153.495 134.725L153.48 134.689L153.464 134.653L142.488 139.503ZM142.765 140.141L153.801 135.43L153.787 135.397L153.772 135.363L142.765 140.141ZM150.356 147.468L147.304 159.073L150.356 147.468ZM113.647 110.593L125.265 107.588L113.647 110.593ZM114.809 111.932L119.614 100.935L114.809 111.932ZM125.538 76.1959L113.617 77.5718L125.538 76.1959ZM119.161 116.945L113.111 127.309L119.161 116.945ZM138.047 142.465L143.959 132.022L138.047 142.465ZM72.4912 114.984L68.0009 126.112L72.4912 114.984ZM100.665 110.459L102.413 98.5867L100.665 110.459ZM109.835 109.243L117.452 118.516L109.835 109.243ZM110.418 107.579L122.218 105.393L110.418 107.579ZM108.241 109.554L104.892 121.077L108.241 109.554ZM114.705 74.7833L125.556 79.9083L114.705 74.7833ZM110.754 113.003L114.843 101.722L110.754 113.003ZM108.573 113.308L115.329 123.225L108.573 113.308ZM112.195 114.523L100.792 118.26L112.195 114.523ZM134.88 143.491L128.539 153.679L134.88 143.491ZM144.344 156.182L132.403 157.373L144.344 156.182ZM114.207 108.648L105.729 100.156L114.207 108.648ZM66.8986 112.159L73.195 101.943L66.8986 112.159ZM48.5098 131.275L38.537 124.601L48.5098 131.275ZM212.628 76.0253L201.655 80.8817C210.906 101.786 201.65 126.308 180.801 135.853L185.796 146.764L190.791 157.675C223.599 142.655 238.163 104.071 223.602 71.1689L212.628 76.0253ZM185.796 146.764L180.864 135.824L180.23 136.11L185.162 147.05L190.094 157.989L190.728 157.703L185.796 146.764ZM185.162 147.05L180.305 136.076C178.575 136.842 176.826 137.479 175.067 137.993L178.435 149.511L181.803 161.029C184.574 160.219 187.318 159.218 190.018 158.023L185.162 147.05ZM143.177 181.399L132.047 176.914C128.111 186.683 120.533 194.956 110.151 199.544L115.001 210.52L119.852 221.496C136.179 214.281 148.129 201.217 154.308 185.884L143.177 181.399ZM115.001 210.52L110.207 199.519L109.57 199.797L114.364 210.797L119.159 221.798L119.795 221.521L115.001 210.52ZM114.364 210.797L109.653 199.761C88.6287 208.736 64.2306 199.156 54.9619 178.183L43.986 183.034L33.01 187.885C47.5952 220.887 85.9845 235.96 119.076 221.834L114.364 210.797ZM43.986 183.034L54.9869 178.24L54.709 177.602L43.7081 182.396L32.7071 187.19L32.985 187.828L43.986 183.034ZM43.7081 182.396L54.7446 177.685C48.9959 164.218 50.848 149.357 58.4825 137.949L48.5098 131.275L38.537 124.601C26.5764 142.472 23.6082 165.875 32.6715 187.107L43.7081 182.396ZM50.2274 96.6611L61.2632 91.9483L60.8635 91.0122L49.8276 95.725L38.7918 100.438L39.1915 101.374L50.2274 96.6611ZM49.8276 95.725L60.9229 91.1538C55.3605 77.6526 61.3704 62.124 74.572 55.8853L69.4449 45.0358L64.3178 34.1862C39.5587 45.8866 28.3011 74.9766 38.7323 100.296L49.8276 95.725ZM69.4449 45.0358L74.4311 55.9508L75.3579 55.5274L70.3716 44.6124L65.3854 33.6974L64.4587 34.1208L69.4449 45.0358ZM70.3716 44.6124L75.2222 55.5884C83.3696 51.9879 92.318 52.6555 99.5964 56.6638L105.385 46.1524L111.174 35.6409C97.6188 28.1759 80.8078 26.8809 65.5211 33.6365L70.3716 44.6124ZM140.97 48.8445L145.888 59.7906L146.522 59.5058L141.604 48.5597L136.687 37.6135L136.053 37.8983L140.97 48.8445ZM141.604 48.5597L146.461 59.5331C167.365 50.2815 191.887 59.5378 201.431 80.3867L212.343 75.3917L223.254 70.3968C208.234 37.5885 169.65 23.0252 136.748 37.5863L141.604 48.5597ZM212.343 75.3917L201.403 80.3246L201.689 80.9582L212.628 76.0253L223.567 71.0925L223.282 70.4589L212.343 75.3917ZM134.88 143.491L141.222 133.303C134.638 129.205 129.127 123.245 125.564 115.715L114.717 120.848L103.87 125.981C109.464 137.803 118.164 147.221 128.539 153.679L134.88 143.491ZM114.717 120.848L125.593 115.778L125.299 115.147L114.423 120.218L103.547 125.288L103.841 125.919L114.717 120.848ZM114.423 120.218L125.334 115.223C124.665 113.76 124.088 112.28 123.598 110.786L112.195 114.523L100.792 118.26C101.558 120.6 102.463 122.921 103.512 125.213L114.423 120.218ZM108.573 113.308L101.817 103.391C100.455 104.318 98.991 105.137 97.4253 105.829L102.276 116.805L107.127 127.781C110.043 126.493 112.781 124.961 115.329 123.225L108.573 113.308ZM102.276 116.805L97.5635 105.769L96.6265 106.169L101.339 117.205L106.051 128.241L106.988 127.841L102.276 116.805ZM101.339 117.205L96.768 106.11C91.3487 108.343 85.6292 108.711 80.2936 107.504L77.6439 119.207L74.9942 130.911C84.9918 133.175 95.766 132.48 105.91 128.301L101.339 117.205ZM61.0434 121.253L53.5274 111.898C31.7069 129.43 23.437 160.038 35.2964 186.874L46.2724 182.023L57.2484 177.173C49.8932 160.529 55.001 141.501 68.5595 130.607L61.0434 121.253ZM46.2724 182.023L35.2965 186.874C49.4379 218.873 86.8417 233.35 118.841 219.209L113.991 208.233L109.14 197.257C89.2648 206.04 66.0321 197.048 57.2483 177.173L46.2724 182.023ZM113.991 208.233L118.841 219.209C144.551 207.848 158.926 181.488 156.285 154.992L144.344 156.182L132.403 157.373C134.046 173.852 125.082 190.212 109.14 197.257L113.991 208.233ZM114.533 56.8065L123.692 49.0527C110.027 32.9125 86.8807 26.9302 66.5316 35.9229L71.3822 46.8989L76.2327 57.8749C86.5832 53.3007 98.3996 56.3214 105.375 64.5602L114.533 56.8065ZM71.3822 46.8989L66.5315 35.9229C41.7971 46.8539 30.6074 75.7666 41.5378 100.501L52.5138 95.6505L63.4898 90.8001C57.9169 78.1891 63.6222 63.4479 76.2328 57.8748L71.3822 46.8989ZM52.5138 95.6505L41.5379 100.501C45.689 109.894 52.4591 117.355 60.6023 122.374L66.8986 112.159L73.195 101.943C69.0494 99.3883 65.6148 95.6084 63.4897 90.7999L52.5138 95.6505ZM70.8367 112.303L75.7535 123.249L76.3884 122.964L71.4716 112.018L66.5547 101.071L65.9199 101.356L70.8367 112.303ZM71.4716 112.018L76.322 122.994C85.705 118.847 95.7596 118.422 104.892 121.077L108.241 109.554L111.591 98.0308C97.2359 93.8577 81.3609 94.5279 66.6211 101.042L71.4716 112.018ZM110.418 107.579L122.218 105.393C120.599 96.6565 121.855 87.7432 125.556 79.9083L114.705 74.7833L103.855 69.6583C98.0585 81.9304 96.0591 95.9509 98.6194 109.766L110.418 107.579ZM100.665 110.459L102.413 98.5867C90.9844 96.9039 78.9519 98.3253 67.6306 103.328L72.4812 114.304L77.3318 125.28C84.3888 122.162 91.8341 121.288 98.9168 122.331L100.665 110.459ZM72.4912 114.984L68.0009 126.112C79.817 130.88 93.5176 131.062 106.116 125.495L101.265 114.519L96.415 103.543C89.9924 106.381 83.0382 106.299 76.9816 103.855L72.4912 114.984ZM140.201 140.514L151.177 135.663C145.584 123.007 136.326 113.07 125.21 106.582L119.161 116.945L113.111 127.309C120.011 131.337 125.742 137.483 129.225 145.364L140.201 140.514ZM116.697 119.178L105.786 124.173C111.546 136.755 120.935 146.567 132.135 152.908L138.047 142.465L143.959 132.022C137.006 128.086 131.195 122.017 127.608 114.182L116.697 119.178ZM184.756 144.491L189.751 155.402C221.561 140.839 235.543 103.246 220.981 71.4366L210.07 76.4315L199.159 81.4264C208.204 101.185 199.519 124.535 179.761 133.58L184.756 144.491ZM210.07 76.4315L220.981 71.4365C206.418 39.6267 168.825 25.6441 137.015 40.2061L142.01 51.1172L147.005 62.0283C166.763 52.9834 190.114 61.6685 199.159 81.4266L210.07 76.4315ZM142.01 51.1172L137.015 40.2062C131.656 42.6594 126.788 45.7771 122.473 49.4226L130.218 58.589L137.962 67.7554C140.627 65.5036 143.649 63.5647 147.005 62.0282L142.01 51.1172ZM125.538 76.1959L113.617 77.5718C114.578 85.8971 111.63 94.2636 105.729 100.156L114.207 108.648L122.686 117.14C133.747 106.096 139.265 90.472 137.459 74.82L125.538 76.1959ZM114.809 111.932L110.004 122.928C119.282 126.981 127.099 134.369 131.512 144.354L142.488 139.503L153.464 134.653C146.528 118.958 134.184 107.302 119.614 100.935L114.809 111.932ZM142.488 139.503L131.48 144.281L131.757 144.92L142.765 140.141L153.772 135.363L153.495 134.725L142.488 139.503ZM150.356 147.468L147.304 159.073C160.957 162.664 175.916 161.736 189.751 155.402L184.756 144.491L179.761 133.58C171.155 137.52 161.898 138.095 153.408 135.862L150.356 147.468ZM122.288 89.2536L133.961 92.0371C134.071 91.5756 134.174 91.1124 134.271 90.6474L122.523 88.2036L110.774 85.7598C110.725 85.9973 110.672 86.2341 110.615 86.47L122.288 89.2536ZM113.275 86.5934L124.984 89.2232C124.955 89.351 124.637 90.5102 123.222 91.6415C121.81 92.7705 119.633 93.5428 117.165 93.1137C114.646 92.676 112.617 91.1095 111.544 89.165C110.506 87.284 110.753 85.8598 110.774 85.7598L122.523 88.2036L134.271 90.6474C135.14 86.4687 134.884 81.7878 132.557 77.57C130.194 73.2885 126.089 70.3051 121.275 69.4683C110.899 67.6646 103.45 75.5783 101.567 83.9636L113.275 86.5934ZM142.765 140.141L131.728 144.853C134.026 150.236 138.859 156.852 147.304 159.073L150.356 147.468L153.408 135.862C153.687 135.936 153.918 136.043 154.086 136.145C154.247 136.242 154.317 136.315 154.313 136.31C154.306 136.304 154.24 136.234 154.138 136.076C154.036 135.919 153.918 135.703 153.801 135.43L142.765 140.141ZM113.647 110.593L102.03 113.598C103.165 117.989 106.271 121.297 110.004 122.928L114.809 111.932L119.614 100.935C122.208 102.069 124.44 104.401 125.265 107.588L113.647 110.593ZM130.218 58.589L122.473 49.4226C112.486 57.8604 112.825 70.7045 113.617 77.5718L125.538 76.1959L137.459 74.82C137.164 72.2687 137.215 70.3337 137.492 69.0108C137.62 68.399 137.768 68.0635 137.85 67.9125C137.917 67.7883 137.95 67.7659 137.962 67.7554L130.218 58.589ZM119.161 116.945L125.21 106.582C119.845 103.45 113.343 104.291 109.01 108.217C104.677 112.142 103.201 118.527 105.786 124.173L116.697 119.178L127.608 114.183C129.445 118.196 128.425 123.011 125.124 126.002C121.822 128.995 116.926 129.536 113.111 127.309L119.161 116.945ZM140.201 140.514L129.225 145.364C125.18 136.21 135.239 127.086 143.959 132.022L138.047 142.465L132.135 152.908C143.539 159.364 156.469 147.638 151.177 135.663L140.201 140.514ZM72.4812 114.304L67.6305 103.329C57.6971 107.719 57.7864 121.99 68.0009 126.112L72.4912 114.984L76.9816 103.855C86.586 107.731 86.6636 121.156 77.3319 125.28L72.4812 114.304ZM100.665 110.459L98.9168 122.331C94.9516 121.747 91.4202 118.532 90.7466 114.047C90.0597 109.472 92.602 105.228 96.4148 103.543L101.265 114.519L106.116 125.495C112.041 122.877 115.425 116.771 114.481 110.483C113.55 104.285 108.662 99.5069 102.413 98.5867L100.665 110.459ZM109.835 109.243L117.452 118.516C121.572 115.131 123.067 109.975 122.218 105.393L110.418 107.579L98.6194 109.766C98.0006 106.427 99.0738 102.553 102.218 99.9705L109.835 109.243ZM108.241 109.554L104.892 121.077C108.993 122.269 113.75 121.556 117.452 118.516L109.835 109.243L102.218 99.9705C105.032 97.6584 108.592 97.1589 111.591 98.0308L108.241 109.554ZM114.533 56.8065L105.375 64.5602C105.096 64.2312 105.296 64.0596 105.258 64.9302C105.213 65.9743 104.816 67.6243 103.855 69.6583L114.705 74.7833L125.556 79.9083C128.757 73.1318 132.79 59.7989 123.692 49.0527L114.533 56.8065ZM110.754 113.003L114.843 101.722C110.158 100.023 105.342 100.989 101.817 103.391L108.573 113.308L115.329 123.225C113.087 124.753 109.89 125.454 106.665 124.285L110.754 113.003ZM112.195 114.523L123.598 110.786C122.312 106.86 119.269 103.326 114.843 101.722L110.754 113.003L106.665 124.285C103.621 123.182 101.62 120.789 100.792 118.26L112.195 114.523ZM134.88 143.491L128.539 153.679C130.144 154.678 131.221 155.633 131.842 156.402C132.134 156.762 132.273 157.019 132.337 157.161C132.394 157.29 132.401 157.348 132.403 157.373L144.344 156.182L156.285 154.992C155.173 143.844 147.027 136.917 141.222 133.303L134.88 143.491ZM114.207 108.648L105.729 100.156C102.472 103.408 100.693 108.431 102.03 113.598L113.647 110.593L125.265 107.588C126.239 111.356 124.92 114.91 122.686 117.14L114.207 108.648ZM77.6439 119.207L80.2936 107.504C74.0465 106.089 62.7317 104.503 53.5274 111.898L61.0434 121.253L68.5595 130.607C68.5653 130.603 68.6014 130.569 68.7456 130.518C68.9111 130.46 69.2432 130.372 69.8054 130.331C71.0161 130.24 72.7284 130.398 74.9942 130.911L77.6439 119.207ZM105.385 46.1524L99.5964 56.6638C106.186 60.2928 114.134 62.5654 121.948 63.2767C129.695 63.982 138.349 63.2419 145.965 59.7555L140.97 48.8445L135.975 37.9335C133.263 39.175 129.1 39.8286 124.124 39.3756C119.214 38.9286 114.534 37.4912 111.174 35.6409L105.385 46.1524ZM113.275 86.5934L101.567 83.9636C99.6822 92.3552 103.02 102.576 112.972 105.517C117.653 106.9 122.7 106.061 126.754 103.184C130.735 100.358 132.971 96.188 133.961 92.0371L122.288 89.2536L110.615 86.47C110.639 86.3697 111.038 84.9077 112.863 83.6125C114.761 82.2655 117.333 81.7792 119.774 82.5006C125.246 84.1177 125.043 88.9574 124.984 89.2232L113.275 86.5934ZM66.8986 112.159L60.6023 122.374C65.7485 125.546 71.5405 125.176 75.8259 123.216L70.8367 112.303L65.8475 101.389C67.5931 100.591 70.426 100.237 73.195 101.943L66.8986 112.159ZM48.5098 131.275L58.4825 137.949C63.1515 130.972 65.0326 122.424 65.3044 114.735C65.5789 106.97 64.2657 98.7399 61.2033 91.8104L50.2274 96.6611L39.2514 101.512C40.615 104.597 41.4878 109.124 41.3194 113.887C41.1484 118.726 39.9578 122.478 38.537 124.601L48.5098 131.275ZM178.435 149.511L175.067 137.993C165.927 140.666 156.909 146.453 149.597 153.062C142.288 159.668 135.614 168.063 132.047 176.914L143.177 181.399L154.308 185.884C156.12 181.387 160.169 175.857 165.69 170.867C171.21 165.878 177.131 162.395 181.803 161.029L178.435 149.511Z" fill="rgba(255,255,255,0.9)" mask="url(#path-1-inside-1_4020_32735)"/>
</svg>
