<svg width="300" height="283" viewBox="0 0 300 283" fill="none" xmlns="http://www.w3.org/2000/svg">
<path fill-rule="evenodd" clip-rule="evenodd" d="M150.317 0C234.531 0 309.69 46.1253 288.863 100.457C288.797 100.372 241.711 39.6172 150.317 39.6172C91.76 39.6173 42.2578 66.5002 42.2578 98.4766C42.2579 103.19 43.3339 107.793 45.3555 112.215C72.957 95.0233 110.194 85.1787 149.683 85.1787C233.896 85.1787 300 128.474 300 183.654C300 238.835 233.897 282.131 149.683 282.131C65.4685 282.131 -9.69043 236.006 11.1367 181.674C11.1367 181.674 58.2243 242.514 149.683 242.514C208.24 242.514 257.742 215.631 257.742 183.654C257.742 178.941 256.665 174.338 254.644 169.916C227.042 187.107 189.805 196.952 150.317 196.952C66.1036 196.952 0.000305424 153.657 0 98.4766C0 43.296 66.1034 9.89731e-05 150.317 0ZM149.683 124.796C122.387 124.796 96.1628 130.68 76.2402 140.912C95.7538 151.037 121.975 157.336 150.317 157.336C177.613 157.336 203.836 151.45 223.759 141.218C204.245 131.093 178.025 124.796 149.683 124.796Z" fill="#060A0E"/>
</svg>
